<svg width="24" height="24" viewBox="0 0 24 24" fill="none" xmlns="http://www.w3.org/2000/svg">
<path d="M14.5766 2H9.5C7.01844 2 5 3.92623 5 6.29444C5 7.08488 5.67078 7.68566 6.5 7.68566C7.32922 7.68566 8 7.04507 8 6.29444C8 5.50533 8.67219 4.86296 9.5 4.86296H14.5766C15.9125 4.86296 17 5.90033 17 7.17972C17 8.06187 16.4858 8.85589 15.5703 9.29697L10.9906 11.8589C10.4891 12.1183 10.25 12.588 10.25 13.0935V14.8829C10.25 15.6733 10.9208 16.3139 11.75 16.3139C12.5792 16.3139 13.25 15.6733 13.25 14.8829V13.9121L17 11.8097C18.8502 10.9262 20 9.15158 20 7.17972C20 4.32347 17.5672 2 14.5766 2ZM11.75 18.4616C10.7145 18.4616 9.875 19.2627 9.875 20.2509C9.875 21.2391 10.7145 22 11.75 22C12.7855 22 13.625 21.1993 13.625 20.2509C13.625 19.3026 12.7859 18.4616 11.75 18.4616Z" fill="#FEFEFE"/>
</svg>

