<svg width="17" height="20" viewBox="0 0 17 20" fill="none" xmlns="http://www.w3.org/2000/svg">
<path d="M14.5714 8.73019H13.3571V4.97359C13.3571 2.21131 11.1786 0 8.5 0C5.82136 0 3.64286 2.24653 3.64286 4.97359V8.69497L2.42857 8.73019C1.08717 8.73019 0 9.8513 0 11.2346V17.4956C0 18.8789 1.08717 20 2.42857 20H14.5714C15.9128 20 17 18.8789 17 17.4956V11.2346C17 9.88848 15.9109 8.73019 14.5714 8.73019ZM4.85714 5.0088C4.85714 2.93719 6.49112 1.2522 8.5 1.2522C10.5089 1.2522 12.1429 2.93719 12.1429 5.0088V8.76541H4.85714V5.0088ZM15.7857 17.5308C15.7857 18.2211 15.2408 18.783 14.5714 18.783H2.42857C1.7592 18.783 1.21429 18.2211 1.21429 17.5308V11.2698C1.21429 10.5795 1.7592 10.0176 2.42857 10.0176H14.5714C15.2408 10.0176 15.7857 10.5795 15.7857 11.2698V17.5308Z" fill="#747D86"/>
</svg>
