<svg width="20" height="16" viewBox="0 0 20 16" fill="none" xmlns="http://www.w3.org/2000/svg">
<path d="M10 3.42857C7.54514 3.42857 5.55556 5.475 5.55556 8C5.55556 10.525 7.54618 12.5714 10 12.5714C12.4528 12.5714 14.4444 10.5243 14.4444 8.00357C14.4444 5.47857 12.4549 3.42857 10 3.42857ZM10 11.4286C8.16215 11.4286 6.66667 9.89071 6.66667 8C6.66667 6.10929 8.16215 4.57143 10 4.57143C11.8382 4.57143 13.3333 6.10786 13.3333 8.00036C13.3333 9.88929 11.809 11.4286 10 11.4286ZM19.8785 7.36071C17.9965 2.98214 14.2674 0 10 0C5.73264 0 2.00313 2.98571 0.120451 7.36071C0.0542708 7.55 0 7.82143 0 8C0 8.17775 0.0542361 8.45 0.120451 8.60821C2.00417 13.0179 5.73264 16 10 16C14.2674 16 17.9965 13.015 19.8785 8.63929C19.9444 8.45 20 8.14643 20 8C20 7.82143 19.9444 7.55 19.8785 7.36071ZM18.8611 8.15C17.0938 12.2857 13.6979 14.8571 10 14.8571C6.30208 14.8571 2.90625 12.2864 1.14583 8.16786C1.13125 8.12857 1.11285 8.03214 1.07986 8.00714C1.08176 7.96621 1.1002 7.87204 1.10658 7.85132C2.90556 3.68214 6.30208 1.14286 10 1.14286C13.6979 1.14286 17.0937 3.71357 18.8542 7.83214C18.8679 7.87071 18.8862 7.96475 18.8881 7.99082C18.8854 8.03214 18.8681 8.12857 18.8611 8.15Z" fill="#747D86"/>
</svg>
