<svg width="24" height="24" viewBox="0 0 24 24" fill="none" xmlns="http://www.w3.org/2000/svg">
<g clip-path="url(#clip0_40013236_3870)">
<path d="M12.5 12.0006C15.1828 12.0006 17.3571 9.76178 17.3571 7.00029C17.3571 4.2388 15.1828 2 12.5 2C9.81719 2 7.64286 4.2388 7.64286 7.00029C7.64286 9.76178 9.81719 12.0006 12.5 12.0006ZM12.5 3.25007C14.5089 3.25007 16.1429 4.9322 16.1429 7.00029C16.1429 9.06799 14.5089 10.7505 12.5 10.7505C10.4911 10.7505 8.85714 9.06682 8.85714 7.00029C8.85714 4.9322 10.4926 3.25007 12.5 3.25007ZM14.4239 13.8757H10.5761C6.94502 13.8757 4 16.9071 4 20.6456C4 21.3933 4.58893 22 5.31522 22H19.6855C20.4118 22.0012 21 21.3957 21 20.6456C21 16.9071 18.0554 13.8757 14.4239 13.8757ZM19.6833 20.7511H5.31522C5.25982 20.7511 5.21429 20.7042 5.21429 20.6456C5.21429 17.6025 7.62009 15.1258 10.5761 15.1258H14.4201C17.3799 15.1258 19.7857 17.6025 19.7857 20.6456C19.7857 20.7042 19.7402 20.7511 19.6833 20.7511Z" fill="#747D86"/>
</g>
<defs>
<clipPath id="clip0_40013236_3870">
<rect width="24" height="24" fill="white"/>
</clipPath>
</defs>
</svg>
