<svg width="91" height="100" viewBox="0 0 91 100" fill="none" xmlns="http://www.w3.org/2000/svg">
<path d="M71.6762 82.9695C66.1343 88.4791 61.1974 93.1337 54.4132 96.2152C50.4282 98.0262 46.298 99.2241 41.9258 99.6032C40.6029 99.7202 39.3041 100.043 37.9489 99.9945C33.6493 99.8493 29.4828 99.0547 25.4615 97.518C20.3714 95.5739 15.9265 92.6133 12.2884 88.588C7.35558 83.1228 4.2055 76.6734 2.47114 69.5343C1.27322 64.6014 0.506873 59.6282 0.341504 54.526C0.260836 51.997 -0.166704 49.4399 0.071266 46.923C0.474606 42.6799 0.478639 38.4166 1.11188 34.1775C1.71689 30.1441 2.49534 26.1591 3.71746 22.2951C5.19771 17.6244 7.36365 13.2885 10.4532 9.38421C14.1196 4.74984 18.8225 2.04343 24.441 0.595442C28.3212 -0.40484 32.0682 -0.0700685 35.8556 1.04315C41.6314 2.74121 47.1128 5.27418 52.8846 6.96014C58.132 8.49283 63.4198 9.70688 68.9294 10.1143C71.5713 10.3079 74.2575 10.0901 76.8954 10.7596C81.4692 11.9172 84.7686 14.5268 86.9385 18.7094C88.8826 22.4565 89.8022 26.4172 90.0967 30.6079C90.2096 32.1971 90.5363 33.7863 90.4395 35.3916C89.9152 43.894 88.6003 50.4442 85.1638 60.1082C81.7274 69.7722 77.2261 77.4558 71.6842 82.9655L71.6762 82.9695Z" fill="#FAE6E6"/>
<path d="M66.363 47.8551C70.9369 49.533 74.6154 52.2999 77.0072 56.6156C79.6168 61.3226 80.0564 66.2675 78.4995 71.4021C78.3463 71.9103 77.6202 74.4755 74.7444 78.041C71.8686 81.6065 67.9845 83.2159 64.8182 83.9096C53.4481 86.4023 42.6265 78.1177 42.1304 66.4813C42.1183 66.2151 42.082 65.9449 42.0578 65.6787C41.1462 63.8556 41.8803 62.1172 42.3159 60.3586C45.2401 51.227 53.1738 45.8424 62.6805 46.5846C63.9914 46.6854 65.3748 46.754 66.3711 47.851L66.363 47.8551Z" fill="#D55E60"/>
<path d="M66.3631 47.8553C59.829 46.1612 53.8636 47.2019 48.6081 51.5741C45.7928 53.9175 43.9939 56.9425 42.8202 60.3749C41.9328 60.5524 41.4771 59.8788 40.9729 59.3827C38.9118 57.366 36.8548 55.3413 34.8542 53.2641C32.8416 51.1788 32.7246 49.4081 34.6889 47.2543C40.0129 41.4059 45.0063 35.2549 50.8103 29.8542C52.7786 28.0231 54.9567 26.4581 57.2557 25.0585C58.3972 24.3607 59.6233 23.788 60.5631 22.7958C64.6409 20.7387 69.009 19.7788 73.5305 19.3997C75.047 19.2746 75.5956 19.9361 75.5068 21.4083C75.168 26.926 73.5103 32.0686 71.2193 37.0498C70.6587 38.2639 69.9004 39.3892 69.6382 40.3007C69.4124 41.4341 70.3764 41.7729 70.207 42.5191C68.9284 44.2978 67.6498 46.0765 66.3712 47.8553H66.3631Z" fill="#EFB2B3"/>
<path d="M70.1989 42.5189C69.602 42.1196 69.005 41.7203 68.3274 41.2645C72.135 34.674 74.7284 27.7527 75.035 19.8875C69.9489 20.0932 65.2056 21.154 60.7043 23.2837C57.2638 25.0946 53.8475 26.9419 50.645 29.1643C45.9017 32.4516 42.1628 36.7673 38.3795 41.0346C36.5564 43.0917 34.7615 45.1769 32.8981 47.1977C32.0833 48.081 31.2242 48.932 30.712 50.255C32.8618 53.1429 36.0159 55.2362 37.9842 58.112C37.7825 59.2777 37.3308 59.8746 36.4273 60.0682C35.9151 60.4837 35.4028 60.8991 34.7292 61.4436C32.8416 59.556 30.958 57.6764 29.0744 55.7969C27.9814 54.7038 26.8843 53.6148 25.7953 52.5177C24.1496 50.8519 24.1093 50.6018 25.1338 48.3875C22.266 47.964 19.4346 47.5123 16.5951 47.1372C15.5182 46.996 14.6066 46.7015 14.2597 45.5762C13.9169 44.463 14.4534 43.6684 15.2439 42.9223C21.419 37.1101 28.6912 33.7261 37.1493 32.9436C37.8188 32.8831 38.4843 32.8307 39.5854 32.7379C39.7145 32.5564 39.9807 32.0684 40.3518 31.6892C48.947 22.9126 59.2644 17.4836 71.4775 15.7936C73.1998 15.5557 74.9624 15.5557 76.7088 15.5557C78.7618 15.5557 79.3265 16.1566 79.3628 18.2137C79.4717 24.2799 78.1245 30.0638 75.886 35.6581C74.8172 38.3323 73.5708 40.9217 71.9857 43.37C71.2516 43.2974 70.7999 42.7367 70.1989 42.5189Z" fill="#D55E60"/>
<path d="M33.4665 70.6477C33.3455 73.6646 32.1355 76.3468 29.2839 78.0086C24.3228 80.8925 18.8656 82.5704 13.4125 84.1999C11.4643 84.7807 10.1131 83.4335 10.6899 81.4935C12.2871 76.1008 13.961 70.7162 16.7763 65.7995C18.789 62.2864 22.9071 60.7416 26.8719 61.8307C30.8045 62.9116 33.4463 66.3561 33.4705 70.6517L33.4665 70.6477Z" fill="#D55E60"/>
<path d="M36.4267 60.0724C36.8381 59.5562 37.2495 59.0439 37.7133 58.4591C34.9585 55.7809 32.2239 53.1269 29.3965 50.3802C33.1919 46.1371 36.8099 42.1924 40.3068 38.1469C43.2189 34.783 46.3125 31.6289 49.9628 29.0677C53.3105 26.7203 57.6948 24.3083 61.8169 22.7837C59.9575 23.9574 58.804 24.7157 57.8037 25.3126C52.3828 28.5595 48.0671 33.0084 43.9893 37.7315C42.7672 39.1472 41.4079 40.4338 40.2262 41.902C38.6773 43.8259 36.9228 45.5885 35.2046 47.3713C34.4786 48.1255 34.1478 49.0613 33.7082 49.876C33.7727 51.3361 34.5512 52.288 35.495 53.1955C37.9634 55.5671 40.3875 57.9791 42.8277 60.3749C42.4163 62.1214 42.0976 63.88 42.0573 65.6829C40.1011 63.8961 38.2377 62.0165 36.4348 60.0724H36.4267Z" fill="#FEFEFE"/>
<path d="M57.4527 51.9047C63.7206 50.009 71.6987 53.4616 74.2801 61.0041C76.0749 66.2394 75.115 71.1239 71.4204 75.246C67.6734 79.4246 62.9019 80.8484 57.3882 79.6424C57.2672 79.6182 57.1664 79.4972 57.0575 79.4246C48.5389 74.044 47.1151 61.2541 54.9198 53.51C55.6579 52.7759 56.6783 52.5501 57.4487 51.9047H57.4527Z" fill="#FAE6E6"/>
<path d="M58.4252 51.6548C56.8199 52.7841 54.1579 54.9057 52.9318 56.87C51.8064 58.6689 51.1006 60.5646 50.661 62.5732C49.6405 67.26 50.8465 71.5031 53.4642 75.4155C54.4725 76.924 56.2391 78.3922 57.3887 79.6425C52.4679 78.7189 47.773 73.9635 46.6719 68.6192C45.2118 61.5447 49.3945 54.3249 56.2714 52.0823C56.6465 51.9613 57.7678 51.7677 58.4252 51.6588V51.6548Z" fill="#FEFEFE"/>
<path d="M66.807 35.1539C66.8272 39.2236 63.7618 42.3213 59.7122 42.3253C55.6546 42.3334 52.5691 39.2478 52.5772 35.1902C52.5812 31.2012 55.582 28.1802 59.5711 28.1439C63.7053 28.1076 66.7868 31.0923 66.807 35.1539Z" fill="#D55E60"/>
<path d="M29.8486 38.8444C31.1231 38.3483 32.8696 37.7957 34.8177 37.8038C32.7324 40.1553 30.8488 42.2768 28.937 44.4307C27.2389 44.4307 25.6216 44.0919 23.9961 43.8015C24.3833 41.817 25.4844 40.6272 27.0211 39.9859C27.9327 39.6067 28.578 39.3365 29.8526 38.8404L29.8486 38.8444Z" fill="#EFB2B3"/>
<path d="M29.9859 38.792C29.1227 39.6108 27.7635 40.4578 26.7148 41.3895C25.7952 42.2083 25.1055 42.781 23.9923 43.8055C23.1573 43.6764 21.4189 43.3255 21.4189 43.3255C24.1576 41.3895 27.0294 39.7358 29.9818 38.792H29.9859Z" fill="#FEFEFE"/>
<path d="M20.7012 77.2062C19.8179 77.545 18.1965 78.2428 16.8413 78.6744C16.4581 78.7954 16.1112 78.4163 16.2564 78.0411C16.3855 77.7144 16.5146 77.3797 16.5751 77.2022C17.6278 74.161 18.6886 71.1198 20.2616 68.3005C21.4877 66.1023 23.2624 65.3763 25.6058 66.0136C25.8438 66.4209 25.6825 66.8081 25.4889 67.151C24.053 69.6678 23.093 72.3904 22.0766 75.0887C21.7902 75.855 21.8023 76.7827 20.7012 77.2062Z" fill="#FEFEFE"/>
<path d="M20.7012 77.2059C21.77 74.4309 22.7219 71.4421 24.0328 68.768C24.4966 67.8201 25.0774 66.9328 25.6058 66.0132C27.7879 66.3883 28.8123 67.917 29.1229 69.8933C29.4173 71.7648 28.6591 73.3701 27.0175 74.3623C25.0653 75.5441 23.0123 76.4355 20.7012 77.2059Z" fill="#EFB2B3"/>
<path d="M68.7708 62.1775C65.7336 65.4526 62.7852 68.6592 59.7965 71.8294C58.4816 73.221 57.5902 73.2734 56.1463 72.0795C54.6015 70.805 53.1091 69.4659 51.4756 68.0542C52.4154 66.9652 53.2704 65.9689 54.2425 64.8396C55.4081 65.8035 56.5214 66.7312 57.7274 67.7275C60.341 64.9243 62.9425 62.1332 65.6409 59.2412C66.7299 60.2617 67.7342 61.2014 68.7748 62.1775H68.7708Z" fill="#D55E60"/>
<path d="M61.8135 37.0053C60.4422 38.1226 59.3572 38.3121 58.2077 37.6386C57.2356 37.0699 56.675 35.8195 56.9049 34.7023C57.163 33.4559 57.9213 32.6694 59.1717 32.4355C60.2244 32.2419 61.1601 32.4839 61.8135 33.4196C61.5957 34.6135 61.5957 35.8114 61.8135 37.0053Z" fill="#FEFEFE"/>
<path d="M61.8137 37.0051C60.8134 35.6701 60.8134 34.7505 61.8137 33.4194C62.8341 34.6133 62.818 35.8112 61.8137 37.0051Z" fill="#FEFEFE"/>
<path d="M18.4118 19.6796C20.7508 19.6796 22.6469 17.7835 22.6469 15.4445C22.6469 13.1056 20.7508 11.2095 18.4118 11.2095C16.0729 11.2095 14.1768 13.1056 14.1768 15.4445C14.1768 17.7835 16.0729 19.6796 18.4118 19.6796Z" fill="#E38688"/>
<path d="M18.4117 16.7956C19.158 16.7956 19.7629 16.1907 19.7629 15.4444C19.7629 14.6982 19.158 14.0933 18.4117 14.0933C17.6655 14.0933 17.0605 14.6982 17.0605 15.4444C17.0605 16.1907 17.6655 16.7956 18.4117 16.7956Z" fill="#FAE6E6"/>
</svg>
